# xmcd
#
# Track frame offsets:
#	150
#	17370
#	35518
#	49916
#	64568
#	72636
#	92618
#	112750
#	133218
#	149028
#	164241
#
# Disc length: 2502 seconds
#
# Revision: 0
# Processed by: cddbd v1.5.2PL0 Copyright (c) Steve Scherf et al.
# Submitted via: EasyCDDAExtractor 11.1.0.1
#
DISCID=a109c40b
DTITLE=Mason Proffit - Rockfish Crossing
DYEAR=1972
DGENRE=Classic Rock
TTITLE0=Jesse
TTITLE1=You Win Again
TTITLE2=Better Find Jesus
TTITLE3=Summer Side Of Love
TTITLE4=Breakin Down
TTITLE5=Were You There?
TTITLE6=Hobo
TTITLE7=A Thousand And Two
TTITLE8=Cripple Creek - Quit Kickin My Dog Aroun
TTITLE9=Wetback
TTITLE10=George's Jam - Call Me The Breeze
EXTD=
EXTT0=
EXTT1=
EXTT2=
EXTT3=
EXTT4=
EXTT5=
EXTT6=
EXTT7=
EXTT8=
EXTT9=
EXTT10=
PLAYORDER=
